# xmcd
#
# Track frame offsets:
#	150
#	14390
#	31701
#	50397
#	74808
#	110515
#	145233
#	150278
#	182800
#	204097
#	230903
#	243185
#	252213
#
# Disc length: 3746 seconds
#
# Revision: 0
# Processed by: cddbd v1.5.2PL0 Copyright (c) Steve Scherf et al.
# Submitted via: EasyCDDAExtractor 11.9.9.666
#
DISCID=aa0ea00d
DTITLE=Sundanese Instrumentalia - Romantic Harp And Flute (Rick's Rec)
DYEAR=2007
DGENRE=Country
TTITLE0=Onde-Onde
TTITLE1=Eros Ombak-Ombakan
TTITLE2=Tresna Dimumunggang
TTITLE3=Karanginan
TTITLE4=Lara-Lara
TTITLE5=Senggot Pangemat
TTITLE6=Bubuka
TTITLE7=Kasuat-Kasuat
TTITLE8=Manintin Serang
TTITLE9=Panyileukan
TTITLE10=Gaya
TTITLE11=Cing Cang Keling
TTITLE12=Renggong Gede
EXTD=
EXTT0=
EXTT1=
EXTT2=
EXTT3=
EXTT4=
EXTT5=
EXTT6=
EXTT7=
EXTT8=
EXTT9=
EXTT10=
EXTT11=
EXTT12=
PLAYORDER=
